<?xml version="1.0" encoding="UTF-8"?>
<svg width="999px" height="596px" viewBox="0 0 999 596" version="1.1" xmlns="http://www.w3.org/2000/svg" xmlns:xlink="http://www.w3.org/1999/xlink">
    <!-- Generator: Sketch 55 (78076) - https://sketchapp.com -->
    <title>ebtelemetry</title>
    <desc>Created with Sketch.</desc>
    <defs>
        <linearGradient x1="50%" y1="0%" x2="50%" y2="211.05959%" id="linearGradient-1">
            <stop stop-color="#00B8DA" offset="0%"></stop>
            <stop stop-color="#007CCE" offset="52.269848%"></stop>
            <stop stop-color="#0068BE" offset="100%"></stop>
        </linearGradient>
    </defs>
    <g id="ebtelemetry" stroke="none" stroke-width="1" fill="none" fill-rule="evenodd">
        <text id="云鹰平台" font-family="FZLTZHK--GBK1-0, Lantinghei SC" font-size="122" font-weight="500" line-spacing="120" fill="#3498db">
            <tspan x="431" y="352">云鹰平台</tspan>
        </text>
        <path d="M170.676275,224 C153.220591,202.999757 159.38202,183.61224 189.16056,165.837451 C190.760402,164.678965 185.999761,155.631266 181.555755,155.631266 C177.11175,155.631266 270.381703,145.751741 282,204.160512 C282,206.302745 271.516313,196.954301 251.662719,199.339351 C238.426989,200.929385 236.19758,208.08151 244.974491,220.795727 C226.842296,217.722484 219.017465,212.177412 221.5,204.160512 C223.982535,196.143611 233.328974,190.763821 249.539318,188.021142 C233.102978,175.250192 214.419639,173.943823 193.489299,184.102034 C172.558959,194.260246 164.954618,207.559568 170.676275,224 Z M76.3110836,146 C77.6186829,174.835607 123.346667,212.47066 213.495036,258.90516 C281.621294,293.961761 320.032072,366.559936 225.950768,413.848815 C218.671455,417.748203 297.308443,345.390435 218.144872,292.510785 C168.83136,262.875147 152.817652,253.25399 139.507649,246.002956 C126.197646,238.751922 71,208.982067 71,175.46826 C71.3561937,158.448223 73.1265549,148.62547 76.3110836,146 Z M162.726731,339.403623 C161.9135,338.984391 162.847659,338.45694 165.529209,337.82127 C192.30938,333.152174 210.393291,353.798674 215.42184,361.215923 C220.450389,368.633172 207.611492,343.964902 186.57035,322.020726 C165.529209,300.076549 104.803627,274.263585 96.9289914,268.105115 C56.3036371,239.743664 65.0403985,204.651025 67.5146144,208.256768 C75.0946212,232.488767 128.092541,254.002484 142.381075,262.698176 C156.669608,271.393867 176.313646,281.463073 189.471006,290.67075 C289.924446,369.636182 191.03351,401.008309 203.057074,397.774691 C199.722406,371.432457 186.278959,351.975434 162.726731,339.403623 Z M204.105747,212.514005 C211.634993,221.55997 225.919855,231.271455 246.960333,241.648459 C252.021098,242.311501 266.832288,236.957144 285.083631,229.832702 C303.334973,222.70826 376.883388,192.477976 371.363917,153.137836 C371.363917,150.086276 391.629894,198.491783 355.303221,220.165254 C335.434369,232.019546 306.879266,243.393322 285.083631,252.917572 C267.029811,260.806724 253.613788,267.426882 253.613788,272 C253.613788,272 217.467689,251.005921 208.951216,241.648459 C203.273568,235.41015 201.658412,225.698666 204.105747,212.514005 Z M381.35636,213 C383.039026,231.862598 381.42245,244.393422 376.506631,250.592471 C369.132903,259.891044 338.537132,270.083883 322.559897,274.969377 C306.582663,279.854872 288.923916,281.360344 272.071571,291 C260.71311,266.073114 297.958525,264.355078 337.538311,250.592471 C363.924834,241.4174 378.530851,228.886576 381.35636,213 Z" id="形状结合" fill="url(#linearGradient-1)"></path>
    </g>
</svg>
